<mxfile host="app.diagrams.net" modified="2021-08-28T11:29:16.813Z" agent="5.0 (Windows NT 10.0; Win64; x64) AppleWebKit/537.36 (KHTML, like Gecko) Chrome/92.0.4515.159 Safari/537.36 Edg/92.0.902.78" etag="IHRtZbeItCZGLCTUzGq1" version="15.0.3" type="github">
  <diagram id="nviNW1cYz2_LKimfbRfa" name="第 1 页">
    <mxGraphModel dx="868" dy="492" grid="1" gridSize="10" guides="1" tooltips="1" connect="1" arrows="1" fold="1" page="1" pageScale="1" pageWidth="827" pageHeight="1169" math="0" shadow="0">
      <root>
        <mxCell id="0" />
        <mxCell id="1" parent="0" />
        <mxCell id="C_4ZurY-01_SR05VNvJY-18" value="" style="group" vertex="1" connectable="0" parent="1">
          <mxGeometry x="120" y="140" width="440" height="230" as="geometry" />
        </mxCell>
        <mxCell id="C_4ZurY-01_SR05VNvJY-1" value=" · 构造函数" style="rounded=0;whiteSpace=wrap;html=1;container=1;fillColor=#dae8fc;strokeColor=#6c8ebf;" vertex="1" parent="C_4ZurY-01_SR05VNvJY-18">
          <mxGeometry width="120" height="60" as="geometry">
            <mxRectangle x="120" y="140" width="90" height="20" as="alternateBounds" />
          </mxGeometry>
        </mxCell>
        <mxCell id="C_4ZurY-01_SR05VNvJY-2" value=" 原型" style="rounded=0;whiteSpace=wrap;html=1;container=1;fillColor=#d5e8d4;strokeColor=#82b366;" vertex="1" parent="C_4ZurY-01_SR05VNvJY-18">
          <mxGeometry x="320" width="120" height="60" as="geometry">
            <mxRectangle x="440" y="140" width="60" height="20" as="alternateBounds" />
          </mxGeometry>
        </mxCell>
        <mxCell id="C_4ZurY-01_SR05VNvJY-3" value=" 实例" style="rounded=0;whiteSpace=wrap;html=1;container=1;fillColor=#fff2cc;strokeColor=#d6b656;" vertex="1" parent="C_4ZurY-01_SR05VNvJY-18">
          <mxGeometry x="170" y="170" width="120" height="60" as="geometry" />
        </mxCell>
        <mxCell id="C_4ZurY-01_SR05VNvJY-8" value="" style="endArrow=classic;html=1;exitX=1;exitY=0.383;exitDx=0;exitDy=0;exitPerimeter=0;entryX=-0.008;entryY=0.383;entryDx=0;entryDy=0;entryPerimeter=0;" edge="1" parent="C_4ZurY-01_SR05VNvJY-18" source="C_4ZurY-01_SR05VNvJY-1" target="C_4ZurY-01_SR05VNvJY-2">
          <mxGeometry width="50" height="50" relative="1" as="geometry">
            <mxPoint x="270" y="200" as="sourcePoint" />
            <mxPoint x="320" y="150" as="targetPoint" />
          </mxGeometry>
        </mxCell>
        <mxCell id="C_4ZurY-01_SR05VNvJY-9" value="prototype" style="text;html=1;align=center;verticalAlign=middle;resizable=0;points=[];autosize=1;strokeColor=none;" vertex="1" parent="C_4ZurY-01_SR05VNvJY-18">
          <mxGeometry x="190" width="70" height="20" as="geometry" />
        </mxCell>
        <mxCell id="C_4ZurY-01_SR05VNvJY-10" value="" style="endArrow=classic;html=1;exitX=1;exitY=0.383;exitDx=0;exitDy=0;exitPerimeter=0;entryX=-0.008;entryY=0.383;entryDx=0;entryDy=0;entryPerimeter=0;" edge="1" parent="C_4ZurY-01_SR05VNvJY-18">
          <mxGeometry width="50" height="50" relative="1" as="geometry">
            <mxPoint x="319.03999999999996" y="45.99000000000001" as="sourcePoint" />
            <mxPoint x="120" y="45.99000000000001" as="targetPoint" />
          </mxGeometry>
        </mxCell>
        <mxCell id="C_4ZurY-01_SR05VNvJY-11" value="constructor" style="text;html=1;align=center;verticalAlign=middle;resizable=0;points=[];autosize=1;strokeColor=none;" vertex="1" parent="C_4ZurY-01_SR05VNvJY-18">
          <mxGeometry x="190" y="50" width="70" height="20" as="geometry" />
        </mxCell>
        <mxCell id="C_4ZurY-01_SR05VNvJY-13" value="" style="endArrow=classic;html=1;exitX=0.5;exitY=1;exitDx=0;exitDy=0;entryX=1;entryY=0.5;entryDx=0;entryDy=0;" edge="1" parent="C_4ZurY-01_SR05VNvJY-18" source="C_4ZurY-01_SR05VNvJY-2" target="C_4ZurY-01_SR05VNvJY-3">
          <mxGeometry width="50" height="50" relative="1" as="geometry">
            <mxPoint x="380" y="60" as="sourcePoint" />
            <mxPoint x="490" y="200" as="targetPoint" />
          </mxGeometry>
        </mxCell>
        <mxCell id="C_4ZurY-01_SR05VNvJY-14" value="_proto_" style="text;html=1;strokeColor=none;fillColor=none;align=center;verticalAlign=middle;whiteSpace=wrap;rounded=0;rotation=-53;" vertex="1" parent="C_4ZurY-01_SR05VNvJY-18">
          <mxGeometry x="300" y="110" width="40" height="20" as="geometry" />
        </mxCell>
        <mxCell id="C_4ZurY-01_SR05VNvJY-17" value="" style="group" vertex="1" connectable="0" parent="C_4ZurY-01_SR05VNvJY-18">
          <mxGeometry x="109.48380337507945" y="98.25123504075503" width="41.03239324984111" height="43.49752991848993" as="geometry" />
        </mxCell>
        <mxCell id="C_4ZurY-01_SR05VNvJY-16" value="new" style="text;html=1;strokeColor=none;fillColor=none;align=center;verticalAlign=middle;whiteSpace=wrap;rounded=0;rotation=50;" vertex="1" parent="C_4ZurY-01_SR05VNvJY-17">
          <mxGeometry x="0.5161966249205534" y="11.748764959244966" width="40" height="20" as="geometry" />
        </mxCell>
        <mxCell id="C_4ZurY-01_SR05VNvJY-12" value="" style="endArrow=classic;html=1;exitX=0.5;exitY=1;exitDx=0;exitDy=0;entryX=0;entryY=0.5;entryDx=0;entryDy=0;" edge="1" parent="C_4ZurY-01_SR05VNvJY-18" source="C_4ZurY-01_SR05VNvJY-1" target="C_4ZurY-01_SR05VNvJY-3">
          <mxGeometry width="50" height="50" relative="1" as="geometry">
            <mxPoint x="390" y="330" as="sourcePoint" />
            <mxPoint x="280" y="330" as="targetPoint" />
          </mxGeometry>
        </mxCell>
      </root>
    </mxGraphModel>
  </diagram>
</mxfile>
